<svg width="100" height="100" viewBox="0 0 100 100" fill="none" xmlns="http://www.w3.org/2000/svg">
<circle cx="50" cy="50" r="50" fill="url(#paint0_linear)"/>
<path fill-rule="evenodd" clip-rule="evenodd" d="M39 33H33V39H39V33ZM29 29V43H43V29H29ZM39 61.0009H33V67.0009H39V61.0009ZM29 57.0009V71.0009H43V57.0009H29ZM29 48.0005H33V52.0005H29V48.0005ZM39.0001 48.0005V52.0005H49.0001V48.0005H39.0001ZM48.0002 29H52.0002V39H48.0002V29ZM56.9999 48.0005H52.9999V58.0005H56.9999V48.0005ZM48.9999 58.0006H52.9999V67.0006H48.9999V58.0006ZM52.9999 47.9989V43.9989H48.9999V47.9989H52.9999ZM62 52.0005H67V56.9998H71V52.0005V50.9998V48.0005H62V52.0005ZM67 71H62.0001V67H67V62H71V71H68.0001H67ZM60.9999 58.0006V62.0006H56.9999V58.0006H60.9999ZM56.9999 71.001V67.001H52.9999V71.001H56.9999ZM60.9999 33H66.9999V39H60.9999V33ZM56.9999 43V29H70.9999V43H56.9999Z" fill="white"/>
<defs>
<linearGradient id="paint0_linear" x1="0" y1="100" x2="100" y2="100" gradientUnits="userSpaceOnUse">
<stop stop-color="#EF35FF"/>
<stop offset="1" stop-color="#2BA6FF"/>
</linearGradient>
</defs>
</svg>
