<svg width="100" height="100" viewBox="0 0 100 100" fill="none" xmlns="http://www.w3.org/2000/svg">
<circle cx="50" cy="50" r="50" fill="url(#paint0_linear)"/>
<path d="M28 25V58.2468C28.0262 63.7444 30.2151 69.0092 34.0906 72.8957C37.9661 76.7823 43.2146 78.9762 48.6942 79H51.3058C56.7854 78.9762 62.0339 76.7823 65.9094 72.8957C69.7849 69.0092 71.9738 63.7444 72 58.2468V25C65.0299 27.9174 57.5524 29.4195 50 29.4195C42.4476 29.4195 34.9702 27.9174 28 25ZM40.6515 41.9271C42.3899 41.9295 44.0563 42.6241 45.2847 43.8582C46.5132 45.0924 47.2031 46.7652 47.2031 48.5094H34.0817C34.0817 47.6442 34.2517 46.7876 34.582 45.9884C34.9123 45.1892 35.3963 44.4632 36.0065 43.8518C36.6167 43.2405 37.341 42.7558 38.138 42.4256C38.935 42.0953 39.7891 41.9259 40.6515 41.9271ZM49.9955 69.1266C46.7718 69.1242 43.6808 67.839 41.4004 65.5528C39.1201 63.2667 37.8368 60.1664 37.832 56.9322C45.8097 59.0266 54.1903 59.0266 62.168 56.9322C62.1632 60.168 60.8786 63.2697 58.5964 65.556C56.3141 67.8424 53.2207 69.1266 49.9955 69.1266ZM53.7457 48.4641C53.7457 46.7207 54.436 45.0488 55.6647 43.8161C56.8933 42.5834 58.5598 41.8909 60.2974 41.8909C62.035 41.8909 63.7014 42.5834 64.9301 43.8161C66.1588 45.0488 66.849 46.7207 66.849 48.4641H53.7457Z" fill="white"/>
<defs>
<linearGradient id="paint0_linear" x1="0" y1="100" x2="100" y2="100" gradientUnits="userSpaceOnUse">
<stop stop-color="#EF35FF"/>
<stop offset="1" stop-color="#2BA6FF"/>
</linearGradient>
</defs>
</svg>
