<svg width="100" height="100" viewBox="0 0 100 100" fill="none" xmlns="http://www.w3.org/2000/svg">
<circle cx="50" cy="50" r="50" fill="url(#paint0_linear)"/>
<path fill-rule="evenodd" clip-rule="evenodd" d="M52.8676 27.718V64.0639L52.8543 64.068C46.8615 59.1298 34.1635 61.4473 34.0049 69.5622C33.7567 80.0289 55.0533 82.2883 55.7528 67.4853C55.7528 58.1003 55.7528 48.7152 55.7528 39.3302C64.1032 40.8581 65.7532 48.5805 61.428 54.8674C69.1483 47.0227 67.8201 42.3917 63.6195 37.8806C60.2686 34.2819 56.2178 31.4432 52.8676 27.718ZM34.878 23C38.022 24.5924 41.395 25.4311 44.5066 26.9405C48.4076 28.833 50.4643 31.5228 47.4412 38.5758C48.6486 33.3897 45.5874 28.7627 39.7447 29.8565C42.1565 35.9818 44.5679 42.1071 46.9793 48.2324C50.3268 58.0687 35.8464 61.9268 33.319 55.0331C31.3375 49.6971 39.0295 45.0052 44.2098 46.7273L44.2176 46.7213L34.878 23Z" fill="white"/>
<defs>
<linearGradient id="paint0_linear" x1="0" y1="100" x2="100" y2="100" gradientUnits="userSpaceOnUse">
<stop stop-color="#EF35FF"/>
<stop offset="1" stop-color="#2BA6FF"/>
</linearGradient>
</defs>
</svg>
