<svg width="48" height="48" viewBox="0 0 48 48" fill="none" xmlns="http://www.w3.org/2000/svg">
<circle cx="24" cy="24" r="23.5" stroke="#8354FF"/>
<path fill-rule="evenodd" clip-rule="evenodd" d="M19 14C19 13.4477 19.4477 13 20 13H31C32.105 13 33 13.895 33 15V28C33 28.5523 32.5523 29 32 29C31.4477 29 31 28.5523 31 28V15H20C19.4477 15 19 14.5523 19 14ZM16 17H27C28.105 17 29 17.896 29 19V33C29 34.104 28.105 35 27 35H16C14.896 35 14 34.104 14 33V19C14 17.896 14.896 17 16 17ZM27 19H16V33H27V19Z" fill="#8354FF"/>
</svg>
