<svg width="24" height="24" viewBox="0 0 24 24" fill="none" xmlns="http://www.w3.org/2000/svg">
<rect x="1" y="1" width="22" height="2" rx="1" fill="#272727"/>
<rect x="9" y="10" width="2" height="2" rx="1" transform="rotate(90 9 10)" fill="#272727"/>
<rect x="13" y="8" width="4" height="2" rx="1" transform="rotate(90 13 8)" fill="#272727"/>
<rect x="17" y="6" width="6" height="2" rx="1" transform="rotate(90 17 6)" fill="#272727"/>
<rect x="11.8018" y="16.0781" width="8.41603" height="2" rx="1" transform="rotate(120 11.8018 16.0781)" fill="#272727"/>
<rect width="8.47809" height="2" rx="1" transform="matrix(0.5 0.866025 0.866025 -0.5 12.0352 16.0625)" fill="#272727"/>
<path d="M4 3V13C4 14.6569 5.34315 16 7 16H17C18.6569 16 20 14.6569 20 13V3" stroke="#272727" stroke-width="2"/>
</svg>
