<svg width="18" height="18" viewBox="0 0 18 18" fill="none" xmlns="http://www.w3.org/2000/svg">
<path fill-rule="evenodd" clip-rule="evenodd" d="M10 1C10 0.447715 9.55228 0 9 0C8.44772 0 8 0.447715 8 1V10.0858L5.70711 7.79289C5.31658 7.40237 4.68342 7.40237 4.29289 7.79289C3.90237 8.18342 3.90237 8.81658 4.29289 9.20711L8.29289 13.2071C8.68342 13.5976 9.31658 13.5976 9.70711 13.2071L13.7071 9.20711C14.0976 8.81658 14.0976 8.18342 13.7071 7.79289C13.3166 7.40237 12.6834 7.40237 12.2929 7.79289L10 10.0858V1ZM2 13C2 12.4477 1.55228 12 1 12C0.447715 12 0 12.4477 0 13V17C0 17.5523 0.447715 18 1 18H17C17.5523 18 18 17.5523 18 17V13C18 12.4477 17.5523 12 17 12C16.4477 12 16 12.4477 16 13V16H2V13Z" fill="url(#paint0_linear)"/>
<defs>
<linearGradient id="paint0_linear" x1="0" y1="18.0001" x2="18" y2="18.0001" gradientUnits="userSpaceOnUse">
<stop stop-color="#EF35FF"/>
<stop offset="1" stop-color="#2BA6FF"/>
</linearGradient>
</defs>
</svg>
