<svg width="48" height="48" viewBox="0 0 48 48" fill="none" xmlns="http://www.w3.org/2000/svg">
<circle cx="24" cy="24" r="23.5" stroke="#8354FF"/>
<path fill-rule="evenodd" clip-rule="evenodd" d="M25 13C25 12.4477 24.5523 12 24 12C23.4477 12 23 12.4477 23 13V24.5858L20.2071 21.7929C19.8166 21.4024 19.1834 21.4024 18.7929 21.7929C18.4024 22.1834 18.4024 22.8166 18.7929 23.2071L23.2929 27.7071C23.6834 28.0976 24.3166 28.0976 24.7071 27.7071L29.2071 23.2071C29.5976 22.8166 29.5976 22.1834 29.2071 21.7929C28.8166 21.4024 28.1834 21.4024 27.7929 21.7929L25 24.5858V13ZM15 28C15 27.4477 14.5523 27 14 27C13.4477 27 13 27.4477 13 28V33C13 33.5523 13.4477 34 14 34H34C34.5523 34 35 33.5523 35 33V28C35 27.4477 34.5523 27 34 27C33.4477 27 33 27.4477 33 28V32H15V28Z" fill="#8354FF"/>
</svg>
