<svg width="21" height="16" viewBox="0 0 21 16" fill="none" xmlns="http://www.w3.org/2000/svg">
<g clip-path="url(#clip0)">
<path d="M0.5 3C0.5 1.61929 1.61929 0.5 3 0.5H18C19.3807 0.5 20.5 1.61929 20.5 3V13C20.5 14.3807 19.3807 15.5 18 15.5H3C1.61929 15.5 0.5 14.3807 0.5 13V3Z" stroke="#787A94"/>
<path d="M10.5 9.5L10.1678 9.87373C10.3573 10.0421 10.6428 10.0421 10.8322 9.8737L10.5 9.5ZM1.16683 1.87391L10.1678 9.87373L10.8322 9.12627L1.83114 1.12646L1.16683 1.87391ZM10.8322 9.8737L19.8322 1.87351L19.1679 1.12611L10.1678 9.1263L10.8322 9.8737Z" fill="#787A94"/>
<path d="M7.5 6.5L1 14.5" stroke="#787A94"/>
<path d="M13.5 6.5L20 14.5" stroke="#787A94"/>
</g>
<defs>
<clipPath id="clip0">
<rect width="21" height="16" fill="white"/>
</clipPath>
</defs>
</svg>
