<svg width="79" height="145" viewBox="0 0 79 145" fill="none" xmlns="http://www.w3.org/2000/svg">
<path d="M75.297 111.557C75.297 130.664 66.691 142.534 52.838 142.534C47.409 142.538 42.163 140.572 38.074 137.002C32.589 131.983 30.919 127.074 29.149 121.876C27.661 117.507 26.124 112.989 22.295 108.196C18.179 103.044 19.64 101.343 20.12 100.785C20.5889 100.479 21.1189 100.28 21.6728 100.201C22.2268 100.122 22.7913 100.165 23.327 100.327C25.34 100.717 30.401 102.741 33.907 113.078C33.912 113.094 33.925 113.104 33.93 113.118C33.9657 113.198 34.0099 113.275 34.062 113.345C34.0974 113.408 34.1379 113.468 34.183 113.524C34.3045 113.623 34.4317 113.714 34.564 113.797C34.6326 113.823 34.7036 113.843 34.776 113.855C34.8591 113.882 34.945 113.899 35.032 113.907C35.048 113.907 35.06 113.916 35.076 113.916C35.1406 113.909 35.2046 113.896 35.267 113.877C35.3342 113.874 35.4012 113.866 35.467 113.851C35.482 113.851 35.492 113.833 35.507 113.828C35.5848 113.793 35.6589 113.75 35.728 113.699C35.7943 113.663 35.8569 113.621 35.915 113.573C35.9651 113.519 36.01 113.459 36.049 113.396C36.1553 113.288 36.2228 113.147 36.241 112.996C36.2693 112.909 36.2878 112.819 36.296 112.727C36.296 112.713 36.304 112.7 36.304 112.685V71.2298C36.304 70.1824 36.7201 69.1778 37.4609 68.4371C38.2017 67.6964 39.2064 67.2803 40.254 67.2803C41.3016 67.2803 42.3063 67.6964 43.047 68.4371C43.7878 69.1778 44.204 70.1824 44.204 71.2298V102.317C44.2131 102.638 44.3471 102.943 44.5774 103.167C44.8077 103.391 45.1163 103.516 45.4375 103.516C45.7587 103.516 46.0672 103.391 46.2975 103.167C46.5279 102.943 46.6618 102.638 46.671 102.317V89.3639C46.671 88.3164 47.0871 87.3118 47.8279 86.5711C48.5687 85.8304 49.5734 85.4143 50.621 85.4143C51.6686 85.4143 52.6733 85.8304 53.414 86.5711C54.1548 87.3118 54.571 88.3164 54.571 89.3639V102.317C54.5801 102.638 54.7141 102.943 54.9444 103.167C55.1747 103.391 55.4833 103.516 55.8045 103.516C56.1257 103.516 56.4342 103.391 56.6645 103.167C56.8949 102.943 57.0288 102.638 57.038 102.317V94.5453C57.038 93.4978 57.4541 92.4932 58.1949 91.7525C58.9357 91.0119 59.9404 90.5957 60.988 90.5957C62.0356 90.5957 63.0403 91.0119 63.781 91.7525C64.5218 92.4932 64.938 93.4978 64.938 94.5453V104.944C64.938 105.271 65.0679 105.585 65.2991 105.816C65.5303 106.047 65.844 106.177 66.171 106.177C66.498 106.177 66.8116 106.047 67.0428 105.816C67.2741 105.585 67.404 105.271 67.404 104.944V99.7267C67.404 98.6793 67.8201 97.6747 68.5609 96.934C69.3017 96.1933 70.3064 95.7772 71.354 95.7772C72.4016 95.7772 73.4063 96.1933 74.147 96.934C74.8878 97.6747 75.304 98.6793 75.304 99.7267L75.297 111.557Z" fill="#ECEAFF"/>
<path d="M71.3478 93.3114C69.9113 93.3178 68.5194 93.8113 67.3998 94.7112V94.5472C67.3987 92.8457 66.7224 91.2142 65.5192 90.011C64.316 88.8078 62.6844 88.1312 60.9828 88.1299C59.5464 88.1368 58.1547 88.6303 57.0348 89.5298V89.3658C57.0329 87.665 56.3563 86.0344 55.1535 84.8319C53.9506 83.6293 52.3198 82.9531 50.6188 82.9515C49.1821 82.9586 47.7901 83.452 46.6698 84.3513V71.2288C46.6698 69.5276 45.9939 67.8961 44.7909 66.6932C43.5878 65.4902 41.9562 64.8145 40.2548 64.8145C38.5534 64.8145 36.9217 65.4902 35.7187 66.6932C34.5157 67.8961 33.8398 69.5276 33.8398 71.2288V106.674C30.3518 100.188 26.2278 98.3748 23.7948 97.8999C21.4748 97.4499 19.2948 97.9499 18.2478 99.1717C14.9718 102.982 19.0308 108.062 20.3648 109.732C23.9258 114.187 25.3928 118.503 26.8128 122.667C28.6038 127.931 30.4578 133.373 36.4278 138.836C40.9701 142.811 46.8016 145.001 52.8378 145C67.9798 145 77.7638 131.873 77.7638 111.556V99.7257C77.7617 98.025 77.085 96.3945 75.8822 95.192C74.6794 93.9896 73.0487 93.3132 71.3478 93.3114ZM75.2968 111.556C75.2968 130.663 66.6908 142.533 52.8378 142.533C47.4088 142.537 42.1628 140.571 38.0738 137.001C32.5888 131.982 30.9188 127.073 29.1488 121.875C27.6608 117.506 26.1238 112.988 22.2948 108.195C18.1788 103.043 19.6398 101.341 20.1198 100.784C20.5888 100.478 21.1187 100.279 21.6727 100.2C22.2266 100.121 22.7911 100.164 23.3268 100.326C25.3398 100.716 30.4008 102.74 33.9068 113.077C33.9118 113.093 33.9248 113.103 33.9298 113.117C33.9655 113.197 34.0098 113.273 34.0618 113.344C34.0972 113.407 34.1377 113.467 34.1828 113.523C34.3044 113.621 34.4316 113.713 34.5638 113.796C34.6324 113.822 34.7034 113.842 34.7758 113.854C34.8589 113.881 34.9448 113.898 35.0318 113.906C35.0478 113.906 35.0598 113.915 35.0758 113.915C35.1405 113.908 35.2044 113.895 35.2668 113.876C35.3341 113.873 35.401 113.864 35.4668 113.85C35.4818 113.85 35.4918 113.832 35.5068 113.827C35.5847 113.792 35.6587 113.749 35.7278 113.698C35.7941 113.662 35.8567 113.62 35.9148 113.572C35.9649 113.518 36.0098 113.458 36.0488 113.395C36.1551 113.287 36.2226 113.146 36.2408 112.995C36.2692 112.908 36.2876 112.818 36.2958 112.726C36.2958 112.712 36.3038 112.699 36.3038 112.684V71.2288C36.3038 70.1813 36.7199 69.1767 37.4607 68.436C38.2015 67.6953 39.2062 67.2792 40.2538 67.2792C41.3014 67.2792 42.3061 67.6953 43.0469 68.436C43.7876 69.1767 44.2038 70.1813 44.2038 71.2288V102.316C44.2129 102.637 44.3469 102.942 44.5772 103.166C44.8076 103.39 45.1161 103.515 45.4373 103.515C45.7585 103.515 46.067 103.39 46.2974 103.166C46.5277 102.942 46.6616 102.637 46.6708 102.316V89.3628C46.6708 88.3153 47.0869 87.3107 47.8277 86.57C48.5685 85.8293 49.5732 85.4132 50.6208 85.4132C51.6684 85.4132 52.6731 85.8293 53.4139 86.57C54.1546 87.3107 54.5708 88.3153 54.5708 89.3628V102.316C54.5799 102.637 54.7139 102.942 54.9442 103.166C55.1746 103.39 55.4831 103.515 55.8043 103.515C56.1255 103.515 56.434 103.39 56.6644 103.166C56.8947 102.942 57.0286 102.637 57.0378 102.316V94.5442C57.0378 93.4967 57.4539 92.4921 58.1947 91.7515C58.9355 91.0108 59.9402 90.5947 60.9878 90.5947C62.0354 90.5947 63.0401 91.0108 63.7809 91.7515C64.5216 92.4921 64.9378 93.4967 64.9378 94.5442V104.943C64.9378 105.27 65.0677 105.584 65.2989 105.815C65.5302 106.046 65.8438 106.176 66.1708 106.176C66.4978 106.176 66.8114 106.046 67.0427 105.815C67.2739 105.584 67.4038 105.27 67.4038 104.943V99.7257C67.4038 98.6782 67.8199 97.6736 68.5607 96.9329C69.3015 96.1922 70.3062 95.7761 71.3538 95.7761C72.4014 95.7761 73.4061 96.1922 74.1469 96.9329C74.8876 97.6736 75.3038 98.6782 75.3038 99.7257L75.2968 111.556Z" fill="#B1ADE8"/>
<path d="M29.5137 89.4965C29.7955 89.6626 30.1317 89.71 30.4485 89.6282C30.7652 89.5465 31.0365 89.3423 31.2027 89.0605C31.3688 88.7787 31.4162 88.4425 31.3345 88.1258C31.2527 87.8091 31.0485 87.5378 30.7667 87.3717C27.5437 85.4874 24.956 82.6848 23.3344 79.3222C21.7128 75.9597 21.131 72.19 21.6633 68.4951C22.1956 64.8001 23.818 61.3479 26.3228 58.5797C28.8277 55.8116 32.1013 53.8533 35.7252 52.9552C39.349 52.0571 43.1583 52.26 46.6662 53.5381C50.1741 54.8161 53.221 57.1111 55.4175 60.1298C57.6141 63.1484 58.8603 66.7535 58.997 70.484C59.1336 74.2146 58.1544 77.9012 56.1847 81.0724C56.0123 81.3508 55.9576 81.6863 56.0326 82.0051C56.1076 82.3239 56.3062 82.5998 56.5847 82.7722C56.8632 82.9446 57.1987 82.9993 57.5175 82.9243C57.8363 82.8492 58.1123 82.6507 58.2847 82.3722C60.5049 78.7877 61.6063 74.6228 61.4482 70.4094C61.29 66.1961 59.8796 62.1255 57.3969 58.7174C54.9142 55.3093 51.472 52.7184 47.5098 51.2756C43.5476 49.8328 39.2452 49.6035 35.1521 50.617C31.0589 51.6306 27.3608 53.8409 24.5299 56.9658C21.699 60.0908 19.8638 63.9884 19.2586 68.1611C18.6535 72.3338 19.3059 76.5921 21.1325 80.3923C22.9591 84.1926 25.877 87.3622 29.5137 89.4965Z" fill="#B1ADE8"/>
<path d="M19.3306 139.985H12C7.02943 139.985 3 135.955 3 130.985V10C3 5.02944 7.02944 1 12 1H69C73.9706 1 78 5.02944 78 10V78.9524" stroke="#B1ADE8" stroke-width="2" stroke-linecap="round"/>
<path d="M21 1H60V6C60 8.20914 58.2091 10 56 10H25C22.7909 10 21 8.20914 21 6V1Z" fill="#B1ADE8"/>
<path d="M2 14.998L2 34.9959C0.89543 34.9959 -6.18026e-10 34.1004 4.76695e-08 32.9959L7.47033e-07 16.998C7.9532e-07 15.8935 0.895431 14.998 2 14.998Z" fill="#B1ADE8"/>
<path d="M2 39.9961L2 58.994C0.89543 58.994 4.30934e-08 58.0986 9.13809e-08 56.994L7.47033e-07 41.9961C7.9532e-07 40.8915 0.895431 39.9961 2 39.9961Z" fill="#B1ADE8"/>
</svg>
