<svg width="49" height="53" viewBox="0 0 49 53" fill="none" xmlns="http://www.w3.org/2000/svg">
<path d="M18.1829 31.9648C18.3255 32.2314 18.4657 32.4691 18.5543 32.6175C18.4255 32.4039 18.3054 32.1853 18.1888 31.9648H18.1829Z" fill="url(#paint0_linear)"/>
<path d="M18.6504 32.7743H18.6534C18.6299 32.7356 18.6044 32.6998 18.5814 32.6611C18.624 32.7317 18.6504 32.7743 18.6504 32.7743Z" fill="url(#paint1_linear)"/>
<path d="M25.3878 37.988C25.0787 37.8914 24.7758 37.7802 24.4784 37.6602C24.4769 37.6611 24.475 37.6616 24.474 37.6621C24.5034 37.6744 24.8567 37.8209 25.3878 37.988Z" fill="url(#paint2_linear)"/>
<path d="M25.5907 38.049C25.5917 38.049 25.5932 38.048 25.5942 38.0475C25.5422 38.0328 25.4898 38.0196 25.4384 38.0029C25.4878 38.0191 25.5388 38.0348 25.5907 38.049Z" fill="url(#paint3_linear)"/>
<path fill-rule="evenodd" clip-rule="evenodd" d="M19.0517 14.5927L24.2964 9.34797C29.089 4.55542 36.8592 4.55612 41.651 9.34866C46.4432 14.1409 46.4436 21.9107 41.651 26.7033L36.4063 31.948C35.6586 32.6957 34.8375 33.327 33.9668 33.8422C33.965 33.8432 33.9636 33.8432 33.9623 33.8446C33.85 33.9107 33.7356 33.9727 33.6217 34.0346L33.5995 34.0466C33.5852 34.0546 33.571 34.0627 33.5568 34.0708C33.5241 34.0894 33.4914 34.1081 33.4578 34.1253C33.4425 34.1343 33.4269 34.1422 33.4113 34.1502C33.1248 34.3002 32.832 34.4357 32.5365 34.5615C30.1343 35.5826 27.4758 35.804 24.962 35.225C24.9413 35.2199 24.9208 35.2157 24.9003 35.2114C24.8772 35.2066 24.8542 35.2018 24.8311 35.1959C24.8148 35.1921 24.8002 35.1886 24.7819 35.1841C24.5393 35.1245 24.2999 35.0549 24.0619 34.9811C23.7767 34.892 23.4943 34.7933 23.2154 34.6834C21.6992 34.0847 20.2779 33.1742 19.0521 31.9483C17.8255 30.7218 16.9171 29.2991 16.3187 27.7826L18.0653 26.0359C18.9145 25.1867 20.0011 24.7197 21.113 24.6285C21.1159 24.6448 21.1183 24.6611 21.1208 24.6776C21.1236 24.6962 21.1264 24.7149 21.1299 24.7335C21.3683 25.9621 21.9629 27.1346 22.9143 28.0861C23.8924 29.0642 25.1051 29.6643 26.3715 29.8878C26.3719 29.8881 26.3726 29.8881 26.3732 29.8881C26.3734 29.8883 26.3734 29.8885 26.3734 29.8887C26.3734 29.889 26.3734 29.8893 26.3736 29.8899C26.3736 29.8899 26.6681 29.9689 27.1754 29.991C27.4061 30 27.6764 29.9987 27.991 29.9709C27.9917 29.9709 27.992 29.9706 27.9927 29.9713V29.9692C29.4902 29.8576 30.9562 29.2315 32.1013 28.0864L33.2 26.9877L33.2021 26.9856L33.8621 26.3256L34.5405 25.6472L37.8377 22.3501C40.3743 19.8135 40.3739 15.6997 37.8373 13.1631C35.3004 10.6261 31.1869 10.6254 28.65 13.1624L25.7582 16.0541L25.3293 16.4831C22.8152 15.7139 20.1258 15.6737 17.5924 16.3597C17.6185 16.3217 17.6442 16.2834 17.6699 16.245C17.7192 16.1716 17.7685 16.0981 17.821 16.0264C18.1886 15.5251 18.5989 15.0455 19.0517 14.5927ZM29.9482 38.407L24.7035 43.6517C19.9109 48.4443 12.1411 48.4439 7.34819 43.651C2.55565 38.8585 2.55565 31.089 7.34819 26.2964L12.5922 21.0524C13.3406 20.304 14.1611 19.6727 15.0325 19.1582C15.0333 19.1578 15.0338 19.1574 15.0345 19.157C15.035 19.1566 15.0355 19.1562 15.0363 19.1558C15.1558 19.0847 15.2778 19.0189 15.3994 18.9534C15.4169 18.9436 15.4343 18.9337 15.4517 18.9237C15.4811 18.9068 15.5106 18.89 15.5404 18.8741C15.5469 18.8707 15.5534 18.8673 15.5597 18.8639C15.5689 18.859 15.578 18.8542 15.5872 18.8495C15.8744 18.7001 16.1669 18.5643 16.4624 18.4385C18.8639 17.4175 21.5231 17.1961 24.0369 17.775C24.057 17.7797 24.0772 17.784 24.0974 17.7883C24.1208 17.7933 24.1441 17.7982 24.1675 17.8038C24.1834 17.808 24.1983 17.8118 24.2167 17.8163C24.4585 17.8752 24.6983 17.9452 24.9367 18.0193C25.2218 18.1084 25.5042 18.2071 25.7831 18.3169C27.2993 18.9157 28.7203 19.8259 29.9465 21.0521C31.173 22.2786 32.0818 23.7009 32.6809 25.2175L30.9339 26.9644C30.0851 27.8133 28.9978 28.2804 27.8856 28.3712C27.8838 28.3601 27.8822 28.3491 27.8806 28.338C27.8771 28.3143 27.8736 28.2905 27.8686 28.2662C27.6309 27.0382 27.0364 25.865 26.0849 24.9136C25.1071 23.9358 23.8941 23.3361 22.6277 23.1126C22.6267 23.1122 22.626 23.1122 22.6256 23.1126C22.6256 23.1119 22.6256 23.1112 22.6253 23.1109C22.6253 23.1109 22.3308 23.0312 21.8239 23.01C21.5931 23.0003 21.3229 23.0017 21.0083 23.0301C21.0079 23.0301 21.0077 23.03 21.0074 23.03C21.0071 23.0299 21.0069 23.0298 21.0065 23.0298L21.0069 23.0315C19.5094 23.1431 18.0434 23.7692 16.8986 24.914L15.8003 26.0123L15.7979 26.0147L15.1378 26.6748L14.4597 27.3528L11.1626 30.65C8.62567 33.1869 8.62567 37.2997 11.1626 39.8366C13.6999 42.3739 17.813 42.3742 20.3499 39.8373L23.2417 36.9456L23.671 36.5163C26.1847 37.2858 28.8744 37.3256 31.4076 36.6393C31.3853 36.6719 31.3633 36.7047 31.3413 36.7376C31.2884 36.8165 31.2354 36.8956 31.1789 36.9726C30.8113 37.4739 30.4014 37.9538 29.9482 38.407Z" fill="url(#paint4_linear)"/>
<path d="M25.9983 38.1636C25.9968 38.1631 25.9954 38.1621 25.9935 38.1621C25.9954 38.1621 25.9968 38.1631 25.9983 38.1636Z" fill="url(#paint5_linear)"/>
<path d="M25.3879 37.9883C25.4045 37.9937 25.4212 37.9991 25.4384 38.0035C25.4217 37.9995 25.405 37.9937 25.3879 37.9883Z" fill="url(#paint6_linear)"/>
<path d="M23.4244 29.9995C23.4244 29.9995 23.5768 30.2636 23.9198 30.638C23.9223 30.635 23.9247 30.6321 23.9277 30.6306C23.7469 30.4312 23.5803 30.219 23.4254 29.998C23.4254 29.9985 23.4249 29.9985 23.4244 29.9995Z" fill="url(#paint7_linear)"/>
<path d="M18.5802 32.6594C18.5716 32.6455 18.5639 32.633 18.5543 32.6172C18.5634 32.6316 18.5716 32.645 18.5802 32.6594Z" fill="url(#paint8_linear)"/>
<path d="M23.9277 30.6299C23.9248 30.6314 23.9223 30.6343 23.9199 30.6372C24.0762 30.8073 24.2682 30.9969 24.5108 31.1998C24.5113 31.1988 24.5118 31.1983 24.5118 31.1983C24.306 31.0209 24.11 30.8313 23.9277 30.6299Z" fill="url(#paint9_linear)"/>
<path d="M24.5133 31.1999C24.5138 31.1984 24.5153 31.1969 24.5193 31.1924C24.5173 31.1944 24.5143 31.1964 24.5118 31.1984C24.5123 31.1984 24.5128 31.1989 24.5133 31.1999Z" fill="url(#paint10_linear)"/>
<path d="M24.5138 31.1992H24.5108V31.2022H24.5138V31.1992Z" fill="url(#paint11_linear)"/>
<defs>
<linearGradient id="paint0_linear" x1="18.1829" y1="32.6175" x2="18.5543" y2="32.6175" gradientUnits="userSpaceOnUse">
<stop stop-color="#EF35FF"/>
<stop offset="1" stop-color="#2BA6FF"/>
</linearGradient>
<linearGradient id="paint1_linear" x1="18.5814" y1="32.7743" x2="18.6534" y2="32.7743" gradientUnits="userSpaceOnUse">
<stop stop-color="#EF35FF"/>
<stop offset="1" stop-color="#2BA6FF"/>
</linearGradient>
<linearGradient id="paint2_linear" x1="24.474" y1="37.988" x2="25.3878" y2="37.988" gradientUnits="userSpaceOnUse">
<stop stop-color="#EF35FF"/>
<stop offset="1" stop-color="#2BA6FF"/>
</linearGradient>
<linearGradient id="paint3_linear" x1="25.4384" y1="38.049" x2="25.5942" y2="38.049" gradientUnits="userSpaceOnUse">
<stop stop-color="#EF35FF"/>
<stop offset="1" stop-color="#2BA6FF"/>
</linearGradient>
<linearGradient id="paint4_linear" x1="3.75378" y1="47.246" x2="45.2453" y2="47.246" gradientUnits="userSpaceOnUse">
<stop stop-color="#EF35FF"/>
<stop offset="1" stop-color="#2BA6FF"/>
</linearGradient>
<linearGradient id="paint5_linear" x1="25.9935" y1="38.1636" x2="25.9983" y2="38.1636" gradientUnits="userSpaceOnUse">
<stop stop-color="#EF35FF"/>
<stop offset="1" stop-color="#2BA6FF"/>
</linearGradient>
<linearGradient id="paint6_linear" x1="25.3879" y1="38.0035" x2="25.4384" y2="38.0035" gradientUnits="userSpaceOnUse">
<stop stop-color="#EF35FF"/>
<stop offset="1" stop-color="#2BA6FF"/>
</linearGradient>
<linearGradient id="paint7_linear" x1="23.4244" y1="30.638" x2="23.9277" y2="30.638" gradientUnits="userSpaceOnUse">
<stop stop-color="#EF35FF"/>
<stop offset="1" stop-color="#2BA6FF"/>
</linearGradient>
<linearGradient id="paint8_linear" x1="18.5543" y1="32.6594" x2="18.5802" y2="32.6594" gradientUnits="userSpaceOnUse">
<stop stop-color="#EF35FF"/>
<stop offset="1" stop-color="#2BA6FF"/>
</linearGradient>
<linearGradient id="paint9_linear" x1="23.9199" y1="31.1998" x2="24.5118" y2="31.1998" gradientUnits="userSpaceOnUse">
<stop stop-color="#EF35FF"/>
<stop offset="1" stop-color="#2BA6FF"/>
</linearGradient>
<linearGradient id="paint10_linear" x1="24.5118" y1="31.1999" x2="24.5193" y2="31.1999" gradientUnits="userSpaceOnUse">
<stop stop-color="#EF35FF"/>
<stop offset="1" stop-color="#2BA6FF"/>
</linearGradient>
<linearGradient id="paint11_linear" x1="24.5108" y1="31.2022" x2="24.5138" y2="31.2022" gradientUnits="userSpaceOnUse">
<stop stop-color="#EF35FF"/>
<stop offset="1" stop-color="#2BA6FF"/>
</linearGradient>
</defs>
</svg>
