<svg width="24" height="24" viewBox="0 0 24 24" fill="none" xmlns="http://www.w3.org/2000/svg">
<path d="M19.921 6.2233H19.4863V2.23302C19.4861 2.1045 19.4526 1.97828 19.3892 1.86698C19.3258 1.75568 19.2346 1.66321 19.1248 1.5988C19.0151 1.5344 18.8905 1.50033 18.7637 1.5C18.6368 1.49967 18.5121 1.53309 18.402 1.59693C16.6391 2.62691 11.517 5.30096 9.12382 5.30096H2.79671C2.32039 5.30161 1.86376 5.49359 1.52695 5.8348C1.19014 6.17602 1.00064 6.63862 1 7.12117V12.5524C1.00033 12.9849 1.15265 13.4031 1.42966 13.7322C1.70666 14.0612 2.09027 14.2796 2.51175 14.3482L4.75521 21.4162C4.83084 21.721 5.00321 21.9921 5.24581 22.1879C5.48841 22.3837 5.7878 22.4934 6.09791 22.5C6.16258 22.4998 6.22714 22.4949 6.29111 22.4853C7.25585 22.4155 8.19229 22.1243 9.02964 21.6339C9.20799 21.5503 9.37125 21.437 9.51262 21.2988C9.54088 21.27 9.56672 21.2389 9.5899 21.2058C9.80407 20.9018 9.91879 20.5375 9.91792 20.164C9.91706 19.7905 9.80065 19.4268 9.58507 19.1238C9.31701 18.6859 8.6191 16.9733 8.53458 14.3702H9.11658C12.2029 14.3702 18.3344 18.04 18.3971 18.0693C18.5068 18.1341 18.6314 18.1685 18.7584 18.1691C18.8853 18.1697 19.0102 18.1365 19.1205 18.0728C19.2308 18.0092 19.3227 17.9172 19.3869 17.8063C19.4511 17.6953 19.4853 17.5692 19.4863 17.4406V12.4619H19.921C20.3253 12.4619 20.7257 12.3812 21.0993 12.2245C21.4728 12.0677 21.8123 11.838 22.0982 11.5483C22.3841 11.2586 22.6109 10.9148 22.7656 10.5363C22.9204 10.1579 23 9.75224 23 9.34261C23 8.93298 22.9204 8.52735 22.7656 8.1489C22.6109 7.77045 22.3841 7.42658 22.0982 7.13692C21.8123 6.84727 21.4728 6.6175 21.0993 6.46074C20.7257 6.30398 20.3253 6.2233 19.921 6.2233ZM2.44896 12.5524V7.12117C2.45021 7.02813 2.48725 6.93925 2.55219 6.87346C2.61714 6.80766 2.70487 6.77014 2.79671 6.76887H8.39934V12.9047H2.79671C2.70487 12.9035 2.61714 12.866 2.55219 12.8002C2.48725 12.7344 2.45021 12.6455 2.44896 12.5524ZM8.43556 20.2932L8.3438 20.3422L8.26652 20.3887C8.09023 20.5061 7.42371 20.9 6.15346 21.0272V20.9929L4.04281 14.3727H7.09286C7.17014 17.2596 7.95499 19.251 8.37761 19.9263L8.39934 19.9581C8.43552 20.005 8.45808 20.0612 8.46448 20.1204C8.47088 20.1796 8.46086 20.2395 8.43556 20.2932ZM18.0373 6.2233V16.1831C16.2092 15.1727 12.483 13.2742 9.82656 12.9512V6.71749C12.4033 6.37253 16.1996 4.47159 18.0373 3.47341V6.2233ZM19.9089 10.994H19.4863V7.69121H19.921C20.3533 7.69121 20.7679 7.8652 21.0736 8.17489C21.3793 8.48459 21.551 8.90463 21.551 9.34261C21.551 9.78059 21.3793 10.2006 21.0736 10.5103C20.7679 10.82 20.3533 10.994 19.921 10.994H19.9089Z" fill="#272727" stroke="#272727" stroke-width="0.58"/>
</svg>
