<svg width="49" height="53" viewBox="0 0 49 53" fill="none" xmlns="http://www.w3.org/2000/svg">
<path d="M7 5V31.4743C7.02081 35.852 8.76202 40.0443 11.8448 43.1392C14.9276 46.2341 19.1025 47.981 23.4613 48H25.5387C29.8975 47.981 34.0724 46.2341 37.1552 43.1392C40.238 40.0443 41.9792 35.852 42 31.4743V5C36.4556 7.32312 30.5076 8.51926 24.5 8.51926C18.4924 8.51926 12.5444 7.32312 7 5ZM17.0637 18.479C18.4465 18.4809 19.7721 19.034 20.7492 20.0167C21.7264 20.9995 22.2752 22.3316 22.2752 23.7204H11.8377C11.8377 23.0315 11.973 22.3494 12.2357 21.713C12.4984 21.0766 12.8835 20.4984 13.3688 20.0116C13.8542 19.5248 14.4303 19.1389 15.0643 18.8759C15.6983 18.6129 16.3777 18.4781 17.0637 18.479ZM24.4964 40.1378C21.9321 40.1359 19.4733 39.1125 17.6594 37.2921C15.8455 35.4716 14.8247 33.0029 14.8209 30.4275C21.1668 32.0952 27.8332 32.0952 34.1791 30.4275C34.1753 33.0041 33.1535 35.474 31.338 37.2946C29.5226 39.1153 27.0619 40.1378 24.4964 40.1378ZM27.4796 23.6844C27.4796 22.2962 28.0286 20.9648 29.006 19.9832C29.9833 19.0016 31.3089 18.4501 32.6911 18.4501C34.0733 18.4501 35.3989 19.0016 36.3762 19.9832C37.3536 20.9648 37.9027 22.2962 37.9027 23.6844H27.4796Z" fill="url(#paint0_linear)"/>
<defs>
<linearGradient id="paint0_linear" x1="7" y1="48.0001" x2="42" y2="48.0001" gradientUnits="userSpaceOnUse">
<stop stop-color="#EF35FF"/>
<stop offset="1" stop-color="#2BA6FF"/>
</linearGradient>
</defs>
</svg>
