<svg width="49" height="53" viewBox="0 0 49 53" fill="none" xmlns="http://www.w3.org/2000/svg">
<path fill-rule="evenodd" clip-rule="evenodd" d="M27.6989 4.54648V39.5707L27.6864 39.5746C22.0461 34.816 10.0951 37.0493 9.94576 44.869C9.7122 54.9551 29.756 57.1323 30.4144 42.8676C30.4144 33.8239 30.4144 24.7801 30.4144 15.7364C38.2736 17.2087 39.8265 24.6503 35.7558 30.7086C43.022 23.1491 41.7718 18.6865 37.8184 14.3395C34.6646 10.8716 30.8521 8.13614 27.6989 4.54648ZM10.7675 0C13.7265 1.53449 16.9012 2.3427 19.8298 3.79721C23.5013 5.62085 25.437 8.21288 22.5917 15.0095C23.7281 10.0119 20.847 5.55318 15.348 6.60715C17.6179 12.5097 19.8874 18.4123 22.157 24.3148C25.3076 33.7934 11.679 37.5113 9.3002 30.8682C7.43527 25.7263 14.6749 21.2051 19.5504 22.8645L19.5578 22.8587L10.7675 0Z" fill="url(#paint0_linear)"/>
<defs>
<linearGradient id="paint0_linear" x1="9" y1="53.0002" x2="41" y2="53.0002" gradientUnits="userSpaceOnUse">
<stop stop-color="#EF35FF"/>
<stop offset="1" stop-color="#2BA6FF"/>
</linearGradient>
</defs>
</svg>
