<svg width="64" height="64" viewBox="0 0 64 64" fill="none" xmlns="http://www.w3.org/2000/svg">
<circle cx="32" cy="32" r="31" fill="#ECEAFF" stroke="#B1ADE8" stroke-width="2"/>
<path d="M38.809 29.9516H38.1616L38.159 26.9424C38.1564 23.6644 35.297 20.9976 31.7825 21C28.2679 21.0024 25.4086 23.6693 25.4112 26.9473L25.4164 29.9564H25.1858C23.9776 29.9589 22.9974 30.8731 23 32V40.9589C23 42.0858 23.9828 43 25.191 43L38.8142 42.9927C40.0224 42.9927 41.0026 42.0784 41 40.9516V31.9902C41 30.8633 40.0172 29.9516 38.809 29.9516ZM27.7647 29.9564L27.7595 26.9473C27.7595 24.8769 29.5626 23.1927 31.7825 23.1902C34.0023 23.1902 35.8081 24.8744 35.8081 26.9424L35.8133 29.9516L27.7647 29.9564Z" fill="#B1ADE8"/>
</svg>
