<svg width="47" height="39" viewBox="0 0 47 39" fill="none" xmlns="http://www.w3.org/2000/svg">
<path d="M40.5189 0H6.48105C2.91895 0 0 2.98831 0 6.63507V32.3649C0 36.0117 2.91895 39 6.48105 39H40.5189C44.0811 39 47 36.0117 47 32.3649V6.63507C47 2.98831 44.0811 0 40.5189 0ZM32.1084 8.30649C34.2358 8.30649 35.9674 10.0792 35.9674 12.2571C35.9674 14.4351 34.2358 16.2078 32.1084 16.2078C29.9811 16.2078 28.2495 14.4351 28.2495 12.2571C28.2 10.0792 29.9316 8.30649 32.1084 8.30649ZM36.5116 31.4026H9.74632C8.41053 31.4026 7.56947 29.8831 8.31158 28.7182L17.5632 14.1312C18.2558 13.0675 19.7895 13.0675 20.4326 14.1818L26.4189 24.261C26.6663 24.7169 27.26 24.7675 27.6063 24.413L29.6842 22.387C30.3768 21.7286 31.4158 21.7286 32.1084 22.4377L37.7484 28.5156C38.7874 29.5792 38.0453 31.4026 36.5116 31.4026Z" fill="#ECEAFF"/>
</svg>
