<svg width="239" height="466" viewBox="0 0 239 466" fill="none" xmlns="http://www.w3.org/2000/svg">
<path d="M44 1H200C220.987 1 238 18.0132 238 39V427C238 447.987 220.987 465 200 465H44C23.0132 465 6 447.987 6 427V39C6 18.0132 23.0132 1 44 1Z" stroke="#B1ADE8" stroke-width="2" stroke-linecap="round"/>
<path d="M5 68L5 119L4 119C1.79086 119 -2.28852e-08 117.209 8.5175e-08 115L2.18853e-06 72C2.29659e-06 69.7909 1.79086 68 4 68L5 68Z" fill="#B1ADE8"/>
<path d="M5 134L5 185L4 185C1.79086 185 -2.28852e-08 183.209 8.5175e-08 181L2.18853e-06 138C2.29659e-06 135.791 1.79086 134 4 134L5 134Z" fill="#B1ADE8"/>
<rect x="19.9167" y="15.3203" width="203.763" height="435.103" rx="28" fill="#E6E7FD"/>
<circle cx="122" cy="233" r="32" fill="#8354FF"/>
<path d="M134 233L116 243.392L116 222.608L134 233Z" fill="white"/>
</svg>
