<svg width="100" height="100" viewBox="0 0 100 100" fill="none" xmlns="http://www.w3.org/2000/svg">
<circle cx="50" cy="50" r="50" fill="url(#paint0_linear)"/>
<path d="M38 64.4V74H62V58H38V64.4ZM41 61.2H59V64.4H41V61.2ZM41 67.6H59V70.8H41V67.6Z" fill="white"/>
<path d="M62 35.6V26H38V42H62V35.6Z" fill="white"/>
<path d="M68 36H65V45.3333H35V36H32C29 36 26 39.1111 26 42.2222V57.7778C26 60.8889 29 64 32 64H35V54.6667H65V64H68C71 64 74 60.8889 74 57.7778V42.2222C74 39.1111 71 36 68 36Z" fill="white"/>
<defs>
<linearGradient id="paint0_linear" x1="0" y1="100" x2="100" y2="100" gradientUnits="userSpaceOnUse">
<stop stop-color="#EF35FF"/>
<stop offset="1" stop-color="#2BA6FF"/>
</linearGradient>
</defs>
</svg>
