<svg width="48" height="48" viewBox="0 0 48 48" fill="none" xmlns="http://www.w3.org/2000/svg">
<circle cx="24" cy="24" r="23.5" stroke="#8354FF"/>
<path fill-rule="evenodd" clip-rule="evenodd" d="M29 28.1365C28.24 28.1365 27.56 28.4378 27.04 28.9096L19.91 24.743C19.96 24.512 20 24.2811 20 24.0402C20 23.7992 19.96 23.5683 19.91 23.3373L26.96 19.2108C27.5 19.7129 28.21 20.0241 29 20.0241C30.66 20.0241 32 18.6787 32 17.012C32 15.3454 30.66 14 29 14C27.34 14 26 15.3454 26 17.012C26 17.253 26.04 17.4839 26.09 17.7149L19.04 21.8414C18.5 21.3394 17.79 21.0281 17 21.0281C15.34 21.0281 14 22.3735 14 24.0402C14 25.7068 15.34 27.0522 17 27.0522C17.79 27.0522 18.5 26.741 19.04 26.239L26.16 30.4157C26.11 30.6265 26.08 30.8474 26.08 31.0683C26.08 32.6847 27.39 34 29 34C30.61 34 31.92 32.6847 31.92 31.0683C31.92 29.4518 30.61 28.1365 29 28.1365Z" fill="#8354FF"/>
</svg>
